# xmcd
#
# Track frame offsets:
#	150
#	11643
#	32125
#	49027
#	67706
#	87291
#	108163
#	132569
#	150802
#	168954
#	188686
#	210951
#	228906
#	248939
#	268183
#	297366
#
# Disc length: 4074 seconds
#
# Revision: 0
# Processed by: cddbd v1.5.2PL0 Copyright (c) Steve Scherf et al.
# Submitted via: EasyCDDAExtractor 10.0.1.1
#
DISCID=cb0fe810
DTITLE=Various Artist - Vue des blocks
DYEAR=2006
DGENRE=Rap
TTITLE0=Dj Mx men - Intro
TTITLE1=Lorenzo, Delzen and Vicenzo - 2005
TTITLE2=Berreta - Locataires des blocks
TTITLE3=Lorenzo - La rafale
TTITLE4=La Swija - Regarde
TTITLE5=Lygne 26 - Fin de rodage
TTITLE6=Psy4 de la rime - Vue des blocks
TTITLE7=Lorenzo, Delzen and Vicenzo - La douleur
TTITLE8=Vicenzo - Hermanos
TTITLE9=Yak, Lorenzo and Vicenzo - Funerail
TTITLE10=Vicenzo and El Sarazino - Champs de ruines
TTITLE11=Sale Equipe - Tiens le coup
TTITLE12=Yak - Style décalé
TTITLE13=Lorenzo and Delzen - La vie
TTITLE14=Lorenzo and Vicenzo - Phone game
TTITLE15=16 - Outro
EXTD=
EXTT0=
EXTT1=
EXTT2=
EXTT3=
EXTT4=
EXTT5=
EXTT6=
EXTT7=
EXTT8=
EXTT9=
EXTT10=
EXTT11=
EXTT12=
EXTT13=
EXTT14=
EXTT15=
PLAYORDER=
